<svg width="600" height="600" viewBox="0 0 600 600" xmlns="http://www.w3.org/2000/svg">
  <g fill="none" stroke="#000" stroke-width="2" opacity="0.15">
    <!-- Cactus -->
    <path d="M50 100 L50 80 L45 75 L50 70 L55 75 L50 80 M50 100 L45 105 L50 110 L55 105 L50 100"/>
    <!-- Banana -->
    <path d="M120 80 Q130 70 140 80 Q150 90 140 100 Q130 110 120 100 Q110 90 120 80"/>
    <!-- Panda -->
    <circle cx="200" cy="90" r="15"/>
    <circle cx="195" cy="88" r="3" fill="#000"/>
    <circle cx="205" cy="88" r="3" fill="#000"/>
    <path d="M195 95 Q200 98 205 95"/>
    <!-- Dinosaur -->
    <path d="M280 80 L280 100 L275 105 L270 100 L270 90 L275 85 L280 80 M270 100 L265 105 L260 100"/>
    <!-- Surfboard -->
    <path d="M350 70 Q360 65 370 70 Q380 75 370 80 Q360 85 350 80 Q340 75 350 70"/>
    <!-- Boat -->
    <path d="M50 200 L70 195 L90 200 L85 210 L55 210 L50 200"/>
    <!-- Gift box -->
    <rect x="120" y="180" width="20" height="20"/>
    <path d="M120 190 L140 190 M130 180 L130 200"/>
    <!-- Castle -->
    <rect x="200" y="170" width="30" height="30"/>
    <rect x="205" y="175" width="5" height="10"/>
    <rect x="220" y="175" width="5" height="10"/>
    <path d="M200 170 L215 160 L230 170"/>
    <!-- Carrot -->
    <path d="M280 200 L280 220 L275 225 L270 220 L270 210 L275 205 L280 200"/>
    <path d="M275 200 L270 195 L275 190 L280 195 L275 200"/>
    <!-- Envelope -->
    <rect x="350" y="185" width="25" height="18"/>
    <path d="M350 185 L362.5 195 L375 185"/>
    <!-- Ice cream -->
    <path d="M50 280 Q55 270 60 280 L60 300 L55 305 L50 300 L50 280"/>
    <path d="M50 280 Q52 275 55 280 Q58 285 60 280"/>
    <!-- Sheep -->
    <ellipse cx="120" cy="290" rx="12" ry="10"/>
    <circle cx="115" cy="287" r="2" fill="#000"/>
    <circle cx="125" cy="287" r="2" fill="#000"/>
    <path d="M120 292 Q122 295 120 298 Q118 295 120 292"/>
    <!-- Umbrella -->
    <path d="M200 270 Q210 260 220 270 Q210 280 200 270"/>
    <path d="M210 270 L210 300"/>
    <!-- Fox -->
    <path d="M280 270 Q290 265 300 270 Q295 280 285 280 Q280 275 280 270"/>
    <circle cx="285" cy="272" r="2" fill="#000"/>
    <circle cx="295" cy="272" r="2" fill="#000"/>
    <!-- Pineapple -->
    <ellipse cx="350" cy="290" rx="10" ry="15"/>
    <path d="M345 280 L355 280 M345 285 L355 285 M345 290 L355 290 M345 295 L355 295"/>
    <!-- Rocket -->
    <path d="M50 380 L50 400 L45 405 L50 410 L55 405 L50 400"/>
    <path d="M45 405 L40 400 L45 395 M55 405 L60 400 L55 395"/>
    <!-- Star -->
    <path d="M120 390 L125 400 L135 400 L128 407 L130 417 L120 412 L110 417 L112 407 L105 400 L115 400 L120 390"/>
    <!-- Heart -->
    <path d="M200 390 Q190 380 200 370 Q210 380 200 390 M200 370 Q185 360 200 350 Q215 360 200 370"/>
    <!-- Moon -->
    <path d="M280 380 Q290 375 300 380 Q295 390 285 390 Q280 385 280 380"/>
    <!-- Sun -->
    <circle cx="350" cy="390" r="8"/>
    <path d="M350 380 L350 375 M350 400 L350 405 M380 390 L385 390 M375 390 L370 390 M362 378 L365 375 M338 405 L335 402 M362 402 L365 405 M338 375 L335 378"/>
    <!-- Tree -->
    <path d="M50 480 L50 500 L45 505 L50 510 L55 505 L50 500"/>
    <path d="M40 490 L50 470 L60 490"/>
    <!-- Cloud -->
    <path d="M120 480 Q130 475 140 480 Q145 490 135 490 Q125 490 120 480"/>
    <!-- Flower -->
    <circle cx="200" cy="490" r="5"/>
    <path d="M200 485 L200 475 M200 495 L200 505 M195 490 L185 490 M205 490 L215 490 M195 485 L188 478 M205 485 L212 478 M195 495 L188 502 M205 495 L212 502"/>
    <!-- Leaf -->
    <path d="M280 480 Q290 475 300 480 Q295 490 285 490 Q280 485 280 480"/>
    <!-- Butterfly -->
    <ellipse cx="350" cy="490" rx="8" ry="5"/>
    <path d="M342 490 L340 485 M342 490 L340 495 M358 490 L360 485 M358 490 L360 495"/>
  </g>
</svg>

